<mxfile host="app.diagrams.net" modified="2023-09-02T11:37:28.342Z" agent="Mozilla/5.0 (Macintosh; Intel Mac OS X 10_15_7) AppleWebKit/537.36 (KHTML, like Gecko) Chrome/116.0.0.0 Safari/537.36" version="21.6.9" etag="b9EXc7n2Gi-jJbHFngff" type="github">
  <diagram name="페이지-1" id="kZychnADeOUn-ngefLF8">
    <mxGraphModel>
      <root>
        <mxCell id="0" />
        <mxCell id="1" parent="0" />
      </root>
    </mxGraphModel>
  </diagram>
</mxfile>
